<svg width="50" height="50" viewBox="0 0 83 85" fill="none" xmlns="http://www.w3.org/2000/svg">
<path d="M43.2492 84.9415H35.5618V48.969V12.9965H43.2492V84.9415Z" fill="white"/>
<path d="M0 71.9514V16.9934H7.68741V71.9514H0Z" fill="white"/>
<path d="M43.2421 12.9939L11.5315 12.9939L11.5315 5L43.2421 5V12.9939Z" fill="white"/>
<path d="M12.3297 12.9963C10.0235 13.0056 7.72626 15.413 7.7352 17.8112L0.0478516 17.8422C0.024007 11.4471 5.38131 5.03033 12.2999 5.00244L12.3297 12.9963Z" fill="white"/>
<path d="M36.1322 84.9401L12.2526 84.7447L12.2526 76.6543L36.1136 76.9462L36.1322 84.9401Z" fill="white"/>
<path d="M7.68768 71.7957C7.68881 74.2235 9.99616 76.6502 12.3024 76.649L12.3062 84.7417C6.15623 84.7448 0.00366507 79.083 0.000275457 71.7996L7.68768 71.7957Z" fill="white"/>
<path d="M51.8038 43.2544L51.9341 33.4703C52.138 18.1548 68.4462 8.45719 82 15.5917V5.53254H66.6391C53.5836 5.53254 43 16.1161 43 29.1716V51.8047H51.8038H74.4715L71.2259 59.2161C66.2072 70.6764 55.0074 78.1949 42.5 78.5V85C64.6294 85 82.3431 66.6411 81.5518 44.5259L81.5063 43.2544H51.8038Z" fill="#F9F9F9"/>
</svg>
