<svg width="80" height="80" viewBox="0 0 80 80" fill="none" xmlns="http://www.w3.org/2000/svg">
<path d="M68.569 8.31042L36.1892 8.31042V-6.00815e-05L68.569 -6.00815e-05V8.31042Z" fill="white"/>
<path d="M72 66V41H80V66H72Z" fill="white"/>
<path d="M68 36.611L57 35.7577V28.0001L69 28L68 36.611Z" fill="white"/>
<path d="M72 23V13H80V23H72Z" fill="white"/>
<path d="M72 42C72 38.5 69.2856 36.5 67 36.5L67.8071 28.2557C73.9021 28.2557 80 34.0206 80 41.5L72 42Z" fill="white"/>
<path d="M67.5 70C69.7856 70 72 66.9931 72 64.5L80 66C80 72.6484 74 78.5 67 78L67.5 70Z" fill="white"/>
<path d="M72 13.5C72 11.0069 70.0928 8.31048 67.8071 8.31048V0C73.9021 0 80 6.02056 80 13.5H72Z" fill="white"/>
<path d="M67.6166 28.0479C69.9022 28.0479 72 24.9931 72 22.5L80 22.5C80 29.1484 74.4735 36.3584 67.6166 36.3584V28.0479Z" fill="white"/>
<path d="M43.2492 79.9415H35.5618V43.969V7.99646H43.2492V79.9415Z" fill="white"/>
<path d="M0 66.9514V11.9934H7.68741V66.9514H0Z" fill="white"/>
<path d="M43.2421 7.9939L11.5315 7.9939L11.5315 1.90735e-06L43.2421 1.90735e-06V7.9939Z" fill="white"/>
<path d="M12.3297 7.99627C10.0235 8.00557 7.72626 10.413 7.7352 12.8112L0.0478516 12.8422C0.024007 6.4471 5.38131 0.0303324 12.2999 0.00243778L12.3297 7.99627Z" fill="white"/>
<path d="M36.1322 79.9401L12.2526 79.7447L12.2526 71.6543L36.1136 71.9462L36.1322 79.9401Z" fill="white"/>
<path d="M7.68768 66.7957C7.68881 69.2235 9.99616 71.6502 12.3024 71.649L12.3062 79.7417C6.15623 79.7448 0.00366507 74.083 0.000275457 66.7996L7.68768 66.7957Z" fill="white"/>
<path d="M68 78L58 78.0587V70L68 70V78Z" fill="white"/>
</svg>
